<svg xmlns="http://www.w3.org/2000/svg" viewBox="0 0 1200 630" role="img" aria-labelledby="title desc">
  <title id="title">Database Types Overview</title>
  <desc id="desc">Infographic showing relational, key-value, document, and graph databases in a playful lesson card style.</desc>

  <defs>
    <linearGradient id="bg" x1="0" y1="0" x2="1" y2="1">
      <stop offset="0%" stop-color="#f7fbff"/>
      <stop offset="100%" stop-color="#eef4ff"/>
    </linearGradient>
    <filter id="softShadow" x="-20%" y="-20%" width="140%" height="140%">
      <feDropShadow dx="0" dy="4" stdDeviation="4" flood-color="#8aa2c7" flood-opacity="0.25"/>
    </filter>
    <style>
      .stroke { stroke: #223156; stroke-width: 3; stroke-linecap: round; stroke-linejoin: round; }
      .title { font: 800 56px 'Trebuchet MS', 'Segoe UI', sans-serif; fill: #1f2d52; letter-spacing: 1px; }
      .subtitle { font: 700 24px 'Trebuchet MS', 'Segoe UI', sans-serif; fill: #253867; }
      .cardTitle { font: 800 34px 'Trebuchet MS', 'Segoe UI', sans-serif; fill: #1f2d52; }
      .cardText { font: 600 20px 'Trebuchet MS', 'Segoe UI', sans-serif; fill: #1f2d52; }
      .small { font: 700 18px 'Trebuchet MS', 'Segoe UI', sans-serif; fill: #2d3f6c; }
      .mono { font: 700 16px 'Trebuchet MS', 'Segoe UI', sans-serif; fill: #344b78; }
    </style>
  </defs>

  <rect width="1200" height="630" fill="url(#bg)"/>

  <!-- Decorative dots -->
  <g opacity="0.55">
    <circle cx="80" cy="80" r="5" fill="#78bde8"/>
    <circle cx="98" cy="80" r="5" fill="#87d2ac"/>
    <circle cx="116" cy="80" r="5" fill="#f4c86b"/>
    <circle cx="80" cy="98" r="5" fill="#9c89f4"/>
    <circle cx="98" cy="98" r="5" fill="#78bde8"/>
    <circle cx="116" cy="98" r="5" fill="#87d2ac"/>

    <circle cx="1090" cy="540" r="5" fill="#78bde8"/>
    <circle cx="1108" cy="540" r="5" fill="#87d2ac"/>
    <circle cx="1126" cy="540" r="5" fill="#f4c86b"/>
    <circle cx="1090" cy="558" r="5" fill="#9c89f4"/>
    <circle cx="1108" cy="558" r="5" fill="#78bde8"/>
    <circle cx="1126" cy="558" r="5" fill="#87d2ac"/>
  </g>

  <text x="600" y="68" text-anchor="middle" class="title">DATABASE TYPES</text>
  <text x="600" y="102" text-anchor="middle" class="subtitle">RELATIONAL, NOSQL, AND WHEN TO USE EACH MODEL</text>

  <!-- Center panel -->
  <g filter="url(#softShadow)">
    <rect x="455" y="165" width="290" height="300" rx="28" fill="#ffffff" class="stroke"/>
    <text x="600" y="208" text-anchor="middle" class="cardTitle">SQL vs</text>
    <text x="600" y="248" text-anchor="middle" class="cardTitle">NoSQL</text>

    <!-- Database icon -->
    <ellipse cx="600" cy="300" rx="72" ry="22" fill="#8ac8f2" class="stroke"/>
    <rect x="528" y="300" width="144" height="88" fill="#9bd4f7" class="stroke"/>
    <ellipse cx="600" cy="388" rx="72" ry="22" fill="#7cbbe9" class="stroke"/>
    <line x1="528" y1="335" x2="672" y2="335" class="stroke"/>
    <line x1="528" y1="360" x2="672" y2="360" class="stroke"/>

    <rect x="470" y="414" width="260" height="36" rx="18" fill="#e9f0ff" class="stroke"/>
    <text x="600" y="438" text-anchor="middle" class="small">Data model + query pattern</text>
  </g>

  <!-- Relational card -->
  <g filter="url(#softShadow)">
    <rect x="45" y="150" width="340" height="195" rx="24" fill="#d7eeff" class="stroke"/>
    <text x="215" y="192" text-anchor="middle" class="cardTitle">RELATIONAL</text>

    <rect x="80" y="212" width="130" height="95" rx="10" fill="#ffffff" class="stroke"/>
    <line x1="80" y1="244" x2="205" y2="244" class="stroke"/>
    <line x1="80" y1="276" x2="205" y2="276" class="stroke"/>
    <line x1="123" y1="212" x2="123" y2="307" class="stroke"/>
    <line x1="167" y1="212" x2="167" y2="307" class="stroke"/>

    <text x="233" y="236" class="cardText">SQL tables</text>
    <text x="233" y="264" class="cardText">ACID</text>
    <text x="233" y="292" class="cardText">JOINs</text>
    <text x="233" y="320" class="mono">PostgreSQL, MySQL</text>
  </g>

  <!-- Key-Value card -->
  <g filter="url(#softShadow)">
    <rect x="805" y="150" width="340" height="195" rx="24" fill="#dcf6de" class="stroke"/>
    <text x="975" y="192" text-anchor="middle" class="cardTitle">KEY-VALUE</text>

    <circle cx="860" cy="235" r="24" fill="#ffffff" class="stroke"/>
    <rect x="880" y="225" width="65" height="16" rx="8" fill="#ffffff" class="stroke"/>
    <rect x="945" y="221" width="38" height="24" rx="5" fill="#ffffff" class="stroke"/>

    <text x="980" y="280" class="cardText">Fast lookup</text>
    <text x="980" y="308" class="cardText">Simple scaling</text>
    <text x="980" y="334" class="mono">Redis, DynamoDB</text>
  </g>

  <!-- Document card -->
  <g filter="url(#softShadow)">
    <rect x="55" y="380" width="340" height="195" rx="24" fill="#ffe8cf" class="stroke"/>
    <text x="225" y="422" text-anchor="middle" class="cardTitle">DOCUMENT</text>

    <path d="M85 447 h110 l22 22 v83 h-132 z" fill="#ffffff" class="stroke"/>
    <path d="M195 447 v22 h22" fill="none" class="stroke"/>
    <text x="153" y="505" text-anchor="middle" class="subtitle">{ JSON }</text>

    <text x="235" y="478" class="cardText">Flexible schema</text>
    <text x="235" y="506" class="cardText">Nested data</text>
    <text x="235" y="534" class="mono">MongoDB, Firestore</text>
  </g>

  <!-- Graph card -->
  <g filter="url(#softShadow)">
    <rect x="805" y="380" width="340" height="195" rx="24" fill="#ebddff" class="stroke"/>
    <text x="975" y="422" text-anchor="middle" class="cardTitle">GRAPH</text>

    <circle cx="850" cy="500" r="13" fill="#ffffff" class="stroke"/>
    <circle cx="895" cy="470" r="13" fill="#ffffff" class="stroke"/>
    <circle cx="916" cy="525" r="13" fill="#ffffff" class="stroke"/>
    <circle cx="955" cy="490" r="13" fill="#ffffff" class="stroke"/>
    <line x1="863" y1="494" x2="882" y2="478" class="stroke"/>
    <line x1="908" y1="481" x2="944" y2="488" class="stroke"/>
    <line x1="905" y1="480" x2="916" y2="513" class="stroke"/>
    <line x1="928" y1="517" x2="946" y2="500" class="stroke"/>

    <text x="980" y="486" class="cardText">Relationships</text>
    <text x="980" y="514" class="cardText">Connected data</text>
    <text x="980" y="542" class="mono">Neo4j, Neptune</text>
  </g>

  <!-- Connecting arrows -->
  <g fill="none" class="stroke">
    <path d="M395 250 C430 250, 440 250, 455 250"/>
    <path d="M805 250 C770 250, 760 250, 745 250"/>
    <path d="M395 480 C430 480, 440 430, 455 410"/>
    <path d="M805 480 C770 480, 760 430, 745 410"/>
  </g>

  <g fill="#223156">
    <polygon points="455,250 442,242 442,258"/>
    <polygon points="745,250 758,242 758,258"/>
    <polygon points="455,410 442,402 442,418"/>
    <polygon points="745,410 758,402 758,418"/>
  </g>

  <!-- Bottom ribbon -->
  <g filter="url(#softShadow)">
    <rect x="300" y="585" width="600" height="36" rx="18" fill="#e2edff" class="stroke"/>
    <text x="600" y="609" text-anchor="middle" class="small">Choose by consistency, scale, and query style</text>
  </g>
</svg>