
<svg width="56" height="56" viewBox="0 0 56 56" fill="none" xmlns="http://www.w3.org/2000/svg">
    <path fill-rule="evenodd" clip-rule="evenodd" d="M28 9L28.6196 9.48919L38.1196 16.9892L38.4805 17.2741H50.5H51V17.7741V40.7741V41.2741H50.5H38.5V46.2741V47.2741H37.5H18.5H17.5V46.2741V41.2741H5.5H5V40.7741V17.7741V17.2741H5.5H17.5195L17.8804 16.9892L27.3804 9.48919L28 9ZM17.5195 18.2741H6V40.2741H17.5V35.2741V34.2741H18.5H37.5H38.5V35.2741V40.2741H50V18.2741H38.4805L38.1196 18.559L28.6196 26.059L28 26.5482L27.3804 26.059L17.8804 18.559L17.5195 18.2741ZM20.1138 17.7741L28 24L35.8862 17.7741L28 11.5482L20.1138 17.7741ZM19.5 36.2741V45.2741H36.5V36.2741H19.5Z" fill="#466CBD"/>
</svg>